# xmcd CD database file
#
# Track frame offsets:
#	150
#	27360
#	61323
#	78267
#	100294
#
# Disc length: 1745 seconds
#
# Revision: 0
# Processed by: cddbd v1.5.2PL0 Copyright (c) Steve Scherf et al.
# Submitted via: CDex 1.50
#
DISCID=3506cf05
DTITLE=Pulcinella - Jazz délocalisé
DYEAR=2005
DGENRE=Jazz
TTITLE0=Je suis dans la dèche
TTITLE1=Sale gosse
TTITLE2=Morphée
TTITLE3=Halétant et court
TTITLE4=L'Amérique qu'on aime
EXTD=YEAR: 2005
EXTT0=
EXTT1=
EXTT2=
EXTT3=
EXTT4=
PLAYORDER=
